<svg aria-hidden="true" focusable="false" role="presentation" width="22px" height="22px" viewBox="0 0 22 22" version="1.1" xmlns="http://www.w3.org/2000/svg" xmlns:xlink="http://www.w3.org/1999/xlink" class="icon icon-box">
  <g transform="translate(2.000000, 1.556146)" stroke="currentColor" stroke-linecap="round" stroke-linejoin="round">
    <path d="M0,14.553854 L0,4.33385403 C0,4.0969195 0.139542143,3.88220741 0.356,3.78585403 L8.756,0.051854034 C8.91132011,-0.017284678 9.08867989,-0.017284678 9.244,0.051854034 L17.644,3.78585403 C17.8604579,3.88220741 18,4.0969195 18,4.33385403 L18,14.553854 C18,14.7907886 17.8604579,15.0055007 17.644,15.101854 L9.244,18.835854 C9.08867989,18.9049927 8.91132011,18.9049927 8.756,18.835854 L0.356,15.101854 C0.139542143,15.0055007 0,14.7907886 0,14.553854 Z" id="Path"></path>
    <path d="M8.99481008,4.10185403 C3.36837466,6.63727984 0.50338358,7.88194651 0.399836842,7.83585403 C6.27412424,5.28228512 9.13911532,4.03761845 8.99481008,4.10185403 Z" transform="translate(4.699918, 5.968289) scale(-1, 1) translate(-4.699918, -5.968289) "></path>
    <path d="M9,18.8877081 C9.10354674,11.5667208 9.10354674,7.88318097 9,7.83708849 C9.14430524,15.1399326 9.14430524,18.8234725 9,18.8877081 Z"></path>
    <path d="M17.848,4.10185403 C12.0528801,6.63810281 9.10354674,7.88318097 9,7.83708849 C15.0429719,5.2826966 17.9923052,4.03761845 17.848,4.10185403 Z"></path>
    <path d="M4.5,1.94385403 L13.144,5.78585403 C13.3604579,5.88220741 13.5,6.0969195 13.5,6.33385403 L13.5,9.94385403"></path>
  </g>
</svg>