<svg width="25px" height="26px" viewBox="0 0 25 26" version="1.1" xmlns="http://www.w3.org/2000/svg" xmlns:xlink="http://www.w3.org/1999/xlink" class="icon icon-tags">
  <g transform="translate(0.875000, 0.789250)" stroke="#000000" stroke-width="0.875">
    <polyline id="Path" points="3.42857143 0 12 0 24 11.8357091"></polyline>
    <path d="M8.71885714,3.38163117 L1.71428571,3.38163117 C0.768,3.38163117 0,4.13911655 0,5.07244675 L0,11.979992 C0,12.4286218 0.180571429,12.8592161 0.501714286,13.1759622 L10.9714286,23.504591 C11.6411429,24.1651363 12.7268571,24.1651363 13.3954286,23.504591 C13.568,23.3343823 13.7028571,23.12923 13.7885714,22.9026607 L15.4285714,18.5989714 L19.7931429,16.9836789 C20.68,16.6556607 21.1291429,15.6806237 20.7965714,14.8070357 C20.7108571,14.5815936 20.5771429,14.3764413 20.4034286,14.2051053 L9.93028571,3.87647653 C9.60914286,3.55973041 9.17371429,3.38163117 8.71885714,3.38163117 Z" id="Path"></path>
    <path d="M5.14285714,8.03137402 C4.90628571,8.03137402 4.71428571,8.22074537 4.71428571,8.45407792 C4.71428571,8.68741047 4.90628571,8.87678181 5.14285714,8.87678181 C5.37942857,8.87678181 5.57143112,8.68741047 5.57143112,8.45407792 C5.57257143,8.22074537 5.38171429,8.03250123 5.14514286,8.03137402 C5.144,8.03137402 5.144,8.03137402 5.14285714,8.03137402" id="Path"></path>
  </g>
</svg>